<svg xmlns="http://www.w3.org/2000/svg" xmlns:xlink="http://www.w3.org/1999/xlink" width="32" height="32" viewBox="0 0 32 32">
  <defs>
    <clipPath id="clip-path">
      <rect id="Rectangle_65" data-name="Rectangle 65" width="32" height="32" transform="translate(0)" fill="#e4021b"/>
    </clipPath>
  </defs>
  <g id="Mask_Group_43" data-name="Mask Group 43" clip-path="url(#clip-path)">
    <path id="twitter" d="M15.96,0A15.96,15.96,0,1,0,31.92,15.96,15.962,15.962,0,0,0,15.96,0Zm7.287,12.444q.011.236.01.473A10.352,10.352,0,0,1,12.835,23.34h0A10.369,10.369,0,0,1,7.22,21.695a7.451,7.451,0,0,0,.874.051,7.35,7.35,0,0,0,4.55-1.568,3.667,3.667,0,0,1-3.422-2.544,3.651,3.651,0,0,0,1.655-.063,3.664,3.664,0,0,1-2.939-3.591c0-.017,0-.031,0-.047a3.638,3.638,0,0,0,1.659.458A3.666,3.666,0,0,1,8.462,9.5a10.4,10.4,0,0,0,7.551,3.828,3.665,3.665,0,0,1,6.242-3.341A7.348,7.348,0,0,0,24.582,9.1a3.678,3.678,0,0,1-1.611,2.026,7.306,7.306,0,0,0,2.1-.577,7.445,7.445,0,0,1-1.827,1.9Zm0,0" transform="translate(-0.206 0)" fill="#e4021b"/>
  </g>
</svg>
